<?xml version="1.0" encoding="UTF-8" standalone="no"?>
<!-- Created with Inkscape (http://www.inkscape.org/) -->

<svg
   width="177.03874mm"
   height="112.87713mm"
   viewBox="0 0 177.03874 112.87713"
   version="1.1"
   id="svg5"
   inkscape:version="1.1 (c4e8f9e, 2021-05-24)"
   sodipodi:docname="DIPlib_logo.svg"
   xmlns:inkscape="http://www.inkscape.org/namespaces/inkscape"
   xmlns:sodipodi="http://sodipodi.sourceforge.net/DTD/sodipodi-0.dtd"
   xmlns="http://www.w3.org/2000/svg"
   xmlns:svg="http://www.w3.org/2000/svg">
  <sodipodi:namedview
     id="namedview7"
     pagecolor="#ffffff"
     bordercolor="#666666"
     borderopacity="1.0"
     inkscape:pageshadow="2"
     inkscape:pageopacity="0.0"
     inkscape:pagecheckerboard="true"
     inkscape:document-units="mm"
     showgrid="false"
     fit-margin-top="1"
     fit-margin-left="1"
     fit-margin-bottom="1"
     fit-margin-right="1"
     lock-margins="true"
     inkscape:showpageshadow="false"
     inkscape:zoom="1.0289025"
     inkscape:cx="340.65424"
     inkscape:cy="235.20207"
     inkscape:window-width="1546"
     inkscape:window-height="1012"
     inkscape:window-x="330"
     inkscape:window-y="25"
     inkscape:window-maximized="0"
     inkscape:current-layer="layer1" />
  <defs
     id="defs2">
    <linearGradient
       id="linearGradient1324"
       inkscape:swatch="solid">
      <stop
         style="stop-color:#00b3b3;stop-opacity:1;"
         offset="0"
         id="stop1322" />
    </linearGradient>
  </defs>
  <g
     inkscape:label="Layer 1"
     inkscape:groupmode="layer"
     id="layer1"
     transform="translate(-18.576936,-20.958377)">
    <circle
       style="mix-blend-mode:normal;fill:#ff7400;fill-opacity:1;stroke:none;stroke-width:0.281235;stroke-dasharray:0.281235, 0.281235;opacity:1;fill-rule:nonzero"
       id="path12264"
       cx="147.06378"
       cy="77.245659"
       r="47.838898" />
    <path
       id="circle12744"
       style="fill:#ffffff;fill-opacity:1;stroke:none;stroke-width:0.281235;stroke-dasharray:0.281235, 0.281235"
       d="m 145.97461,31.552734 c -9.41629,0.209547 -18.90524,3.478186 -26.47763,9.253033 -5.99258,4.490829 -10.92971,10.662649 -14.01651,17.496967 -4.62092,10.060694 -5.37526,21.712508 -2.13503,32.255667 2.78868,9.235004 8.6323,17.568729 16.41595,23.322899 5.14137,3.85795 11.18981,6.61935 17.4183,7.98003 5.40343,1.20073 11.04247,1.38969 16.47019,0.60131 11.32545,-1.59874 22.04867,-7.72366 29.16262,-16.7517 7.03393,-8.793042 10.63897,-20.245185 9.85712,-31.483084 -0.76831,-12.945144 -7.4309,-25.383328 -17.75064,-33.22917 -8.18509,-6.317874 -18.54247,-9.73671 -28.94437,-9.445952 z" />
    <rect
       style="fill:#00b3b3;fill-opacity:1;stroke:none;stroke-width:3;stroke-dasharray:none;stroke-opacity:1;stroke-miterlimit:4;stroke-dashoffset:0;paint-order:markers fill stroke"
       id="rect8086"
       width="81.596733"
       height="81.596733"
       x="-148.57024"
       y="-42.4823"
       ry="5.4658084"
       transform="rotate(-135)" />
    <path
       id="rect12496"
       style="fill:#ffffff;fill-opacity:1;stroke:none;stroke-width:3;stroke-miterlimit:4;stroke-dasharray:none;stroke-dashoffset:0;stroke-opacity:1;paint-order:markers fill stroke"
       d="m 74.582031,24.117188 c -1.858327,0.23933 -2.84216,2.04656 -4.155093,3.162905 -16.026945,16.042995 -32.091635,32.049537 -48.069063,48.139681 -1.188589,1.510723 -0.616395,3.872344 0.910093,4.930242 16.571953,16.568922 33.123239,33.157954 49.733985,49.687094 1.513388,1.20578 3.896469,0.64817 4.963297,-0.89102 16.566978,-16.58051 33.17613,-33.121521 49.69126,-49.750868 1.21068,-1.50743 0.63828,-3.892462 -0.89519,-4.95617 C 110.1747,57.869149 93.628582,41.255744 76.992492,24.738527 76.323208,24.200536 75.420055,24.037772 74.582031,24.117188 Z" />
    <path
       style="fill:#ff7400;stroke-width:0.264583;fill-opacity:1"
       d="m 48.263879,87.479409 c -0.07328,-0.32742 -0.105309,-5.53641 -0.07119,-11.575522 l 0.06204,-10.980208 3.752908,-0.0733 c 4.5255,-0.0884 6.934946,0.336187 9.022456,1.589897 4.934146,2.963333 6.675755,10.000093 3.889597,15.715433 -0.963909,1.9773 -2.17638,3.27465 -4.130429,4.41957 -1.966907,1.15245 -3.899596,1.49944 -8.351747,1.49944 -3.974193,0 -4.042596,-0.01 -4.173641,-0.59531 z m 10.196557,-3.964 c 3.069744,-1.3041 4.559441,-4.49077 3.929089,-8.404888 -0.674923,-4.190886 -3.093219,-6.11731 -7.762771,-6.183847 l -2.403269,-0.03424 -0.07433,7.011458 c -0.04088,3.856307 -0.0049,7.294977 0.0799,7.641487 0.152098,0.6213 0.189725,0.62824 2.720165,0.50082 1.411264,-0.0711 2.991313,-0.30991 3.511219,-0.53078 z m 15.389956,-7.016209 0.06893,-11.575521 1.918226,-0.07774 1.91823,-0.07774 v 11.653258 11.653252 h -1.98716 -1.987149 z M 86.487028,76.41207 V 64.749414 l 6.28385,0.110127 c 7.282622,0.127635 7.795372,0.242091 9.738092,2.173764 1.56854,1.559621 2.0947,3.028429 1.9192,5.357516 -0.19413,2.576238 -1.43855,4.469591 -3.75036,5.706098 -0.969042,0.51831 -1.607322,0.60019 -5.591822,0.71739 l -4.49792,0.13229 -0.0724,4.56406 -0.0724,4.56406 h -1.97812 -1.97813 z m 12.25437,-1.864159 c 1.749942,-0.901274 2.406102,-2.446967 1.655192,-3.899066 -0.752582,-1.455322 -1.674312,-1.736582 -6.038212,-1.842508 l -3.9026,-0.09473 v 3.066973 3.066976 h 3.85385 c 2.33576,0 4.08151,-0.117247 4.43177,-0.297645 z"
       id="path59"
       sodipodi:nodetypes="sscsssssssssscsccsscccccccccccsssssccccccssscccss" />
    <g
       aria-label="lib"
       id="text1458"
       style="font-size:55.6072px;line-height:1.25;font-family:'Edwardian Script ITC';-inkscape-font-specification:'Edwardian Script ITC, Normal';font-variant-ligatures:none;stroke-width:0.28962;fill:#006363;fill-opacity:1">
      <path
         id="path6592"
         d="m 146.25391,61.208984 c -1.104,0.428931 -2.3267,0.347496 -3.44141,0.0059 -3.98171,7.139319 -8.29376,14.107195 -12.41508,21.179606 -1.11518,1.748541 -1.95723,3.921833 -1.3193,5.998128 0.45771,1.689864 2.48691,2.745511 4.09805,1.969613 2.20992,-1.070036 3.75234,-3.0899 5.28479,-4.939648 1.06332,-1.373412 2.1095,-2.771814 3.09373,-4.195981 0.30251,-0.702654 -0.67796,-1.320223 -1.16407,-0.71289 -2.0372,2.76533 -3.99642,5.675005 -6.66015,7.917969 -0.51075,0.332128 -1.29576,1.040688 -1.875,0.529297 -0.28204,-1.121494 0.50481,-2.168915 0.91015,-3.166016 2.37529,-4.365393 5.01514,-8.581677 7.54301,-12.859801 2.42807,-4.051079 4.85284,-8.104145 7.28317,-12.153871 -0.44597,0.142578 -0.89193,0.285156 -1.33789,0.427734 z"
         style="fill:#006363;fill-opacity:1" />
      <path
         id="path6594"
         d="m 148.54883,68.039062 c -1.46073,0.218312 -2.80519,1.536834 -2.87891,3.041016 -0.11723,1.048598 0.85117,1.931467 1.88108,1.771568 1.79214,-0.108136 3.38379,-2.08536 2.82986,-3.857505 -0.24761,-0.758553 -1.10132,-1.043572 -1.83203,-0.955079 z m -0.97656,6.373047 c -1.19265,0.189644 -2.41799,0.285684 -3.5918,-0.06836 -1.76857,3.089746 -3.69109,6.095045 -5.35582,9.240974 -0.81114,1.592573 -1.51038,3.601072 -0.53101,5.280407 0.8694,1.689613 3.20731,2.25553 4.79113,1.234478 2.55256,-1.533796 4.3464,-4.002667 6.1234,-6.331228 0.62415,-0.90731 1.36031,-1.743285 1.89613,-2.707834 0.0964,-0.79932 -1.05386,-1.08193 -1.375,-0.373047 -1.9401,2.702843 -3.88429,5.481272 -6.44625,7.639629 -0.61899,0.458 -1.57794,1.199048 -2.31157,0.588887 -0.3117,-1.113163 0.4276,-2.192227 0.9079,-3.154689 2.3128,-3.834212 4.65122,-7.653446 6.97687,-11.480077 -0.36133,0.04362 -0.72266,0.08724 -1.08398,0.130859 z"
         style="fill:#006363;fill-opacity:1" />
      <path
         id="path6596"
         d="m 164.91797,61.513672 c -1.12965,0.207583 -2.30703,0.236981 -3.40625,-0.138672 -4.04657,6.527644 -8.15772,13.016602 -12.16607,19.567085 -1.09477,2.001568 -2.39054,4.256251 -1.82612,6.622368 0.30858,1.722536 1.88185,3.182725 3.68199,3.049659 3.21639,-0.122115 5.97614,-2.100508 8.35903,-4.086768 2.25226,-1.949601 4.30892,-4.650259 4.15385,-7.780295 -0.01,-2.079876 -1.42858,-4.407766 -3.66778,-4.543321 -0.99244,-0.09749 -1.95553,0.334048 -2.72435,0.931038 2.90693,-4.590474 5.81357,-9.181133 8.7207,-13.771485 -0.375,0.05013 -0.75,0.100261 -1.125,0.150391 z m -5.06836,14.15039 c 1.00151,0.08764 0.87591,1.354578 0.7585,2.076724 -0.61873,2.826218 -2.51986,5.139344 -4.31123,7.327573 -1.41036,1.558901 -2.86947,3.299376 -4.92303,3.991573 -0.55963,0.196913 -1.53426,0.141273 -1.48612,-0.66556 0.0661,-1.462895 1.03939,-2.693655 1.74671,-3.920239 1.84149,-2.719227 3.75542,-5.439189 6.14876,-7.706555 0.59495,-0.483095 1.24802,-1.126743 2.06641,-1.103516 z"
         style="fill:#006363;fill-opacity:1" />
    </g>
  </g>
</svg>
