<?xml version="1.0" standalone="no"?>
<!DOCTYPE svg PUBLIC "-//W3C//DTD SVG 20010904//EN"
 "http://www.w3.org/TR/2001/REC-SVG-20010904/DTD/svg10.dtd">
<svg version="1.0" xmlns="http://www.w3.org/2000/svg"
 width="1338.000000pt" height="1338.000000pt" viewBox="0 0 1338.000000 1338.000000"
 preserveAspectRatio="xMidYMid meet">
<metadata>
Created by potrace 1.14, written by Peter Selinger 2001-2017
</metadata>
<g transform="translate(0.000000,1338.000000) scale(0.100000,-0.100000)"
fill="#000000" stroke="none">
<path d="M4174 10860 c-114 -24 -38 49 -2086 -1998 -1871 -1871 -1938 -1939
-1970 -2007 -30 -64 -33 -78 -33 -170 0 -92 3 -106 33 -170 32 -68 99 -136
1970 -2007 1871 -1871 1939 -1938 2007 -1970 65 -30 78 -33 170 -32 187 0 73
-100 1315 1141 597 595 1088 1083 1092 1083 4 0 36 -42 71 -92 548 -786 1377
-1319 2322 -1494 386 -71 890 -73 1272 -4 507 91 976 282 1403 571 698 472
1212 1184 1445 2003 47 165 96 415 117 591 17 146 17 636 0 780 -87 727 -365
1380 -824 1930 -515 619 -1243 1053 -2043 1219 -743 153 -1526 64 -2227 -255
-438 -199 -858 -507 -1176 -861 -112 -125 -251 -303 -318 -407 -21 -33 -43
-61 -49 -61 -5 0 -496 485 -1090 1078 -1010 1008 -1084 1080 -1142 1106 -69
30 -187 42 -259 26z m196 -167 c30 -13 557 -533 1955 -1926 2114 -2107 1969
-1954 1969 -2086 0 -47 -6 -78 -21 -106 -13 -25 -736 -756 -1934 -1957 -1539
-1541 -1923 -1921 -1959 -1937 -71 -30 -122 -35 -187 -16 l-58 16 -1920 1917
c-1056 1054 -1930 1933 -1942 1953 -38 59 -48 136 -28 205 l16 59 1907 1910
c1049 1050 1924 1922 1945 1938 75 58 170 69 257 30z m5660 -553 c655 -57
1312 -323 1845 -746 132 -105 434 -406 525 -522 220 -282 372 -539 499 -839
447 -1057 333 -2272 -303 -3238 -505 -767 -1298 -1303 -2196 -1485 -255 -51
-397 -65 -690 -65 -294 0 -435 14 -694 67 -603 122 -1149 399 -1624 821 -199
177 -412 425 -567 660 l-39 58 801 802 c919 922 858 848 858 1032 0 184 62
109 -863 1037 l-805 806 63 94 c481 711 1188 1210 2016 1423 153 40 390 82
525 94 136 12 515 12 649 1z"/>
<path d="M5140 6760 l0 -880 143 0 144 0 6 342 c4 188 9 343 11 345 2 2 131 8
287 13 156 6 315 15 353 21 90 13 174 57 252 134 104 102 148 215 147 385 0
166 -39 248 -173 373 -122 113 -177 124 -652 132 -177 3 -367 8 -420 10 l-98
5 0 -880z m595 576 c317 -8 396 -32 449 -137 43 -86 30 -167 -37 -237 -73 -77
-154 -91 -539 -92 l-178 0 0 233 c0 129 2 236 5 239 3 3 25 4 48 2 23 -2 137
-6 252 -8z"/>
<path d="M2294 7623 l-41 -4 -6 -136 c-9 -172 -9 -1495 -1 -1545 4 -20 14 -40
23 -44 30 -13 340 -16 500 -5 188 13 284 36 390 91 208 108 340 283 408 538
22 83 26 118 27 242 0 126 -3 157 -26 240 -15 53 -38 122 -52 154 -83 187
-248 346 -429 412 -132 47 -196 55 -482 59 -148 1 -288 1 -311 -2z m635 -318
c257 -64 393 -263 393 -575 0 -132 -25 -231 -82 -320 -42 -65 -127 -142 -193
-174 -67 -33 -200 -55 -354 -58 -101 -3 -125 0 -138 13 -23 23 -29 253 -20
743 l7 399 162 -6 c97 -3 187 -12 225 -22z"/>
<path d="M4214 7623 c-19 -4 -21 -13 -27 -125 -4 -67 -7 -458 -7 -870 l0 -748
145 0 145 0 0 875 0 875 -117 -1 c-65 -1 -127 -4 -139 -6z"/>
<path d="M9666 7914 c-74 -26 -183 -32 -243 -15 l-32 9 -126 -220 c-69 -121
-205 -353 -302 -516 -545 -919 -567 -958 -596 -1040 -44 -129 -38 -262 16
-343 40 -59 99 -93 173 -97 102 -7 167 31 322 184 l122 121 0 -46 c0 -151 110
-261 260 -261 53 0 77 6 115 25 77 42 156 107 262 220 l100 105 5 -73 c6 -86
31 -147 85 -200 56 -57 107 -77 194 -77 151 0 326 72 514 211 253 188 391 374
426 573 52 299 -170 532 -403 424 -32 -15 -58 -25 -58 -23 0 2 143 230 319
507 211 333 314 504 305 506 -8 2 -52 -1 -98 -7 -55 -6 -106 -7 -151 0 -53 7
-72 7 -81 -3 -6 -7 -184 -290 -394 -628 -210 -338 -419 -673 -463 -744 -44
-71 -128 -192 -186 -270 -118 -158 -333 -382 -398 -415 -50 -25 -95 -27 -113
-6 -17 20 -8 87 19 150 12 28 145 253 295 500 151 248 273 451 272 453 -2 1
-41 -3 -87 -9 -46 -7 -125 -9 -175 -6 l-90 5 -145 -244 c-170 -288 -343 -526
-501 -690 -123 -126 -192 -177 -235 -172 -27 3 -28 5 -28 60 1 96 44 175 742
1338 426 711 437 730 431 735 -2 1 -34 -8 -72 -21z m1057 -1126 c36 -42 11
-179 -55 -313 -81 -161 -305 -442 -448 -562 -126 -105 -249 -144 -285 -89 -32
48 8 151 133 341 166 253 374 508 485 594 83 64 132 72 170 29z"/>
<path d="M9764 7376 c-45 -20 -112 -83 -135 -127 -24 -47 -26 -135 -3 -167 49
-71 167 -69 252 4 101 86 121 234 38 285 -37 22 -107 25 -152 5z"/>
</g>
</svg>
