<?xml version="1.0" standalone="no"?>
<!DOCTYPE svg PUBLIC "-//W3C//DTD SVG 20010904//EN"
 "http://www.w3.org/TR/2001/REC-SVG-20010904/DTD/svg10.dtd">
<svg version="1.0" xmlns="http://www.w3.org/2000/svg"
 width="1336.000000pt" height="1336.000000pt" viewBox="0 0 1336.000000 1336.000000"
 preserveAspectRatio="xMidYMid meet">
<metadata>
Created by potrace 1.14, written by Peter Selinger 2001-2017
</metadata>
<g transform="translate(0.000000,1336.000000) scale(0.100000,-0.100000)"
fill="#000000" stroke="none">
<path d="M4171 10828 c-57 -9 -181 -62 -181 -79 0 -5 -4 -9 -9 -9 -8 0 -3785
-3772 -3822 -3817 -27 -33 -51 -85 -68 -151 -27 -98 -18 -181 31 -281 29 -58
199 -231 1948 -1980 1262 -1261 1932 -1924 1961 -1940 89 -48 189 -64 287 -46
20 4 38 6 39 6 2 0 31 14 66 32 53 29 214 185 1143 1115 l1082 1081 18 -22
c11 -12 25 -35 33 -49 8 -15 22 -37 33 -47 10 -11 18 -23 18 -26 0 -7 101
-141 153 -205 151 -183 354 -385 528 -525 41 -33 76 -63 77 -67 2 -5 10 -8 18
-8 8 0 14 -4 14 -8 0 -4 15 -16 33 -27 17 -10 34 -21 37 -25 11 -13 111 -80
120 -80 6 0 10 -3 10 -8 0 -4 21 -19 48 -32 26 -14 49 -28 52 -31 26 -29 418
-224 520 -259 19 -6 46 -18 60 -25 22 -11 66 -24 87 -26 5 0 13 -4 18 -8 6 -4
44 -18 85 -31 41 -13 82 -25 90 -28 18 -6 39 -11 65 -17 11 -2 38 -9 60 -15
22 -6 51 -13 65 -16 14 -3 33 -7 42 -10 10 -3 30 -7 45 -10 16 -2 39 -7 53
-10 14 -3 41 -8 60 -10 19 -3 46 -7 60 -10 14 -2 45 -7 70 -10 25 -3 59 -7 75
-9 179 -26 611 -25 805 2 25 3 62 6 82 7 21 0 38 3 38 7 0 3 10 5 23 6 12 0
38 3 57 7 19 4 46 9 60 11 43 8 71 14 88 19 9 3 33 8 52 11 66 10 443 127 516
160 16 7 50 22 76 34 26 11 50 21 54 21 8 0 278 134 284 141 3 4 25 17 50 29
25 12 47 25 50 29 3 3 21 15 40 25 19 11 37 22 40 25 3 3 21 15 40 25 19 11
37 22 40 25 3 3 32 24 65 46 33 22 62 42 65 45 3 3 23 18 45 35 22 16 42 31
45 35 3 3 37 31 75 62 177 143 395 366 530 542 17 22 38 48 48 58 9 10 15 18
12 18 -4 0 44 68 81 113 8 9 14 19 14 22 0 3 16 28 35 55 19 27 35 54 35 60 0
5 5 10 11 10 5 0 8 4 5 9 -4 5 -2 11 3 13 12 4 141 237 141 254 0 8 5 14 10
14 6 0 10 9 10 20 0 11 5 20 10 20 6 0 10 9 10 20 0 11 5 20 12 20 6 0 8 3 5
6 -3 4 -1 16 5 28 7 11 13 23 13 26 1 3 13 30 27 62 14 31 29 67 33 80 4 12
13 37 21 53 16 36 69 200 84 258 6 23 14 49 17 57 3 8 7 20 8 25 12 48 37 153
39 165 2 8 6 31 10 50 3 19 8 46 11 60 13 66 24 133 29 181 2 19 7 59 10 89
18 151 24 310 11 310 -7 0 -7 3 0 8 10 7 15 232 5 232 -3 0 -5 19 -6 43 0 45
-12 180 -20 237 -2 19 -6 49 -8 65 -2 17 -5 32 -6 35 -1 3 -2 8 -1 12 1 6 -7
50 -24 128 -19 93 -28 137 -30 150 -2 8 -4 15 -5 15 -1 0 -4 11 -7 25 -6 32
-9 42 -16 60 -3 8 -11 35 -17 60 -16 64 -79 247 -102 300 -11 24 -21 49 -23
55 -12 56 -181 389 -268 529 -31 50 -163 244 -181 267 -12 14 -32 40 -46 59
-14 18 -32 41 -40 50 -8 10 -28 34 -45 55 -37 46 -206 225 -259 274 -98 92
-128 119 -172 156 -26 22 -57 46 -68 54 -12 8 -23 17 -26 20 -3 4 -32 26 -65
50 -33 25 -62 47 -65 50 -11 13 -101 71 -109 71 -5 0 -11 4 -13 8 -2 5 -37 28
-78 53 -41 24 -76 47 -78 51 -2 5 -7 8 -11 8 -5 0 -41 18 -82 41 -41 23 -79
42 -85 43 -7 1 -18 7 -25 12 -8 6 -30 18 -49 26 -19 9 -64 29 -100 46 -36 16
-103 44 -150 62 -47 17 -94 36 -105 41 -15 6 -149 48 -175 54 -3 1 -12 4 -20
8 -31 12 -283 73 -345 83 -47 7 -70 12 -70 14 0 1 -20 3 -45 6 -25 2 -61 7
-80 10 -127 20 -238 27 -465 27 -193 -1 -327 -6 -394 -18 -14 -2 -53 -7 -86
-11 -33 -3 -69 -8 -80 -11 -11 -3 -31 -6 -45 -8 -63 -8 -106 -16 -122 -21 -10
-3 -29 -7 -42 -10 -13 -2 -75 -18 -138 -34 -62 -17 -121 -32 -131 -35 -23 -5
-86 -25 -112 -36 -31 -12 -119 -44 -125 -45 -3 0 -14 -4 -25 -9 -11 -4 -47
-19 -80 -32 -56 -23 -179 -79 -235 -108 -50 -25 -145 -76 -160 -85 -8 -5 -58
-35 -110 -67 -52 -31 -96 -60 -98 -65 -2 -4 -10 -8 -17 -8 -7 0 -15 -3 -17 -7
-1 -5 -29 -25 -60 -46 -51 -34 -72 -51 -115 -87 -7 -5 -15 -10 -19 -10 -4 0
-17 -11 -30 -25 -13 -14 -26 -25 -29 -25 -4 0 -12 -6 -19 -12 -7 -7 -32 -29
-56 -48 -67 -55 -351 -341 -395 -398 -21 -29 -43 -52 -47 -52 -4 0 -8 -6 -8
-13 0 -7 -9 -19 -20 -27 -11 -8 -20 -18 -20 -22 0 -4 -8 -16 -17 -26 -10 -10
-25 -29 -33 -42 -8 -12 -20 -28 -26 -34 -5 -6 -13 -19 -17 -28 -3 -10 -11 -18
-17 -18 -5 0 -10 -6 -10 -13 0 -7 -9 -23 -20 -35 -11 -12 -20 -24 -20 -27 0
-4 -12 -22 -26 -40 l-26 -34 -1072 1072 c-590 590 -1082 1079 -1093 1088 -32
26 -125 68 -163 74 -70 10 -96 11 -149 3z"/>
</g>
</svg>
